<svg xmlns="http://www.w3.org/2000/svg" xmlns:xlink="http://www.w3.org/1999/xlink" width="98" height="15" viewBox="0 0 98 15"><defs><path id="xkuza" d="M937.5 969a7.5 7.5 0 1 1 0 15 7.5 7.5 0 0 1 0-15z"/><path id="xkuzb" d="M914.7 971.47a5.02 5.02 0 1 1 0 10.05 5.02 5.02 0 0 1 0-10.05z"/><path id="xkuzd" d="M960.5 971.47a5.03 5.03 0 1 1 0 10.05 5.03 5.03 0 0 1 0-10.05z"/><path id="xkuze" d="M980.9 971.47a5.03 5.03 0 1 1 0 10.05 5.03 5.03 0 0 1 0-10.05z"/><path id="xkuzf" d="M1001.3 971.47a5.03 5.03 0 1 1 0 10.05 5.03 5.03 0 0 1 0-10.05z"/><clipPath id="xkuzc"><use fill="#fff" xlink:href="#xkuza"/></clipPath></defs><g><g opacity=".5" transform="translate(-909 -969)"><use fill="#fff" xlink:href="#xkuzb"/><use fill="#fff" xlink:href="#xkuzb"/></g><g transform="translate(-909 -969)"><use fill="#fff" xlink:href="#xkuza"/><use fill="#fff" fill-opacity="0" stroke="#d3c1ad" stroke-linecap="round" stroke-linejoin="round" stroke-miterlimit="50" stroke-width="4" clip-path="url(&quot;#xkuzc&quot;)" xlink:href="#xkuza"/></g><g opacity=".5" transform="translate(-909 -969)"><use fill="#fff" xlink:href="#xkuzd"/><use fill="#fff" xlink:href="#xkuzd"/></g><g opacity=".5" transform="translate(-909 -969)"><use fill="#fff" xlink:href="#xkuze"/><use fill="#fff" xlink:href="#xkuze"/></g><g opacity=".5" transform="translate(-909 -969)"><use fill="#fff" xlink:href="#xkuzf"/><use fill="#fff" xlink:href="#xkuzf"/></g></g></svg>